<?xml version="1.0" standalone="no"?>
<!DOCTYPE svg PUBLIC "-//W3C//DTD SVG 20010904//EN"
 "http://www.w3.org/TR/2001/REC-SVG-20010904/DTD/svg10.dtd">
<svg version="1.0" xmlns="http://www.w3.org/2000/svg"
 width="52.000000pt" height="48.000000pt" viewBox="0 0 52.000000 48.000000"
 preserveAspectRatio="xMidYMid meet">

<g transform="translate(0.000000,48.000000) scale(0.100000,-0.100000)"
fill="#000000" stroke="none">
<path d="M106 358 c-23 -33 -20 -65 9 -84 23 -15 25 -22 25 -89 0 -52 4 -76
15 -85 8 -7 54 -15 103 -17 114 -6 119 -2 125 102 4 67 7 81 26 93 25 17 28
63 5 86 -12 13 -41 16 -154 16 -132 0 -140 -1 -154 -22z m292 -10 c7 -7 12
-20 12 -30 0 -17 -12 -18 -150 -18 -138 0 -150 1 -150 18 0 36 20 42 150 42
85 0 130 -4 138 -12z m-37 -72 c2 -2 3 -41 1 -85 l-4 -82 -96 3 -97 3 -3 69
c-2 38 -1 75 2 83 4 10 30 13 99 13 52 0 96 -2 98 -4z"/>
<path d="M220 220 c0 -5 20 -10 45 -10 25 0 45 5 45 10 0 6 -20 10 -45 10 -25
0 -45 -4 -45 -10z"/>
<path d="M227 174 c-13 -13 5 -24 38 -24 19 0 37 5 40 10 3 6 -5 10 -19 10
-13 0 -31 2 -38 5 -8 3 -17 3 -21 -1z"/>
</g>
</svg>
