<?xml version="1.0" standalone="no"?>
<!DOCTYPE svg PUBLIC "-//W3C//DTD SVG 20010904//EN"
 "http://www.w3.org/TR/2001/REC-SVG-20010904/DTD/svg10.dtd">
<svg version="1.0" xmlns="http://www.w3.org/2000/svg"
 width="30.000000pt" height="30.000000pt" viewBox="0 0 30.000000 30.000000"
 preserveAspectRatio="xMidYMid meet">

<g transform="translate(0.000000,30.000000) scale(0.100000,-0.100000)"
fill="#000000" stroke="none">
<path d="M97 209 c-36 -29 -37 -33 -37 -94 0 -35 3 -66 8 -68 4 -3 6 25 4 63
-4 67 -3 68 31 94 18 14 40 26 47 26 7 0 29 -12 47 -26 34 -26 35 -27 31 -95
-2 -38 0 -69 5 -69 4 0 7 31 7 69 0 68 -1 70 -37 100 -21 17 -45 31 -53 31 -8
0 -32 -14 -53 -31z"/>
<path d="M133 113 c9 -2 25 -2 35 0 9 3 1 5 -18 5 -19 0 -27 -2 -17 -5z"/>
<path d="M97 38 c-7 -4 17 -8 52 -8 35 0 62 3 58 6 -9 9 -97 10 -110 2z"/>
</g>
</svg>
