<?xml version="1.0" standalone="no"?>
<!DOCTYPE svg PUBLIC "-//W3C//DTD SVG 20010904//EN"
 "http://www.w3.org/TR/2001/REC-SVG-20010904/DTD/svg10.dtd">
<svg version="1.0" xmlns="http://www.w3.org/2000/svg"
 width="39.000000pt" height="40.000000pt" viewBox="0 0 39.000000 40.000000"
 preserveAspectRatio="xMidYMid meet">

<g transform="translate(0.000000,40.000000) scale(0.100000,-0.100000)"
fill="#000000" stroke="none">
<path d="M74 325 c-40 -40 -31 -93 29 -183 59 -88 159 -130 200 -84 24 26 21
35 -14 61 -21 15 -38 21 -54 17 -25 -6 -49 12 -82 62 -14 20 -14 27 -2 48 11
22 11 30 -5 59 -24 45 -42 50 -72 20z m66 -50 c0 -6 -5 -16 -11 -22 -17 -17
-4 -54 37 -102 32 -36 41 -42 65 -37 18 3 35 -1 49 -12 21 -17 21 -18 2 -35
-13 -12 -28 -16 -45 -12 -64 16 -167 145 -167 209 0 16 8 38 17 48 17 19 18
19 35 -4 10 -13 18 -28 18 -33z"/>
<path d="M260 288 c-35 -63 -37 -78 -9 -78 16 0 20 -5 17 -27 -5 -45 15 -40
50 13 39 59 39 64 6 64 -25 0 -25 2 -19 40 9 56 -8 51 -45 -12z m27 -20 c-1
-17 3 -23 16 -22 20 2 22 -14 3 -38 -18 -24 -25 -23 -19 2 4 15 0 20 -16 20
-21 0 -21 1 -6 30 18 36 26 38 22 8z"/>
</g>
</svg>
