<?xml version="1.0" standalone="no"?>
<!DOCTYPE svg PUBLIC "-//W3C//DTD SVG 20010904//EN"
 "http://www.w3.org/TR/2001/REC-SVG-20010904/DTD/svg10.dtd">
<svg version="1.0" xmlns="http://www.w3.org/2000/svg"
 width="53.000000pt" height="49.000000pt" viewBox="0 0 53.000000 49.000000"
 preserveAspectRatio="xMidYMid meet">

<g transform="translate(0.000000,49.000000) scale(0.100000,-0.100000)"
fill="#000000" stroke="none">
<path d="M325 360 c-3 -6 1 -13 9 -16 39 -15 8 -24 -84 -24 -87 0 -103 -3
-120 -20 -21 -21 -24 -32 -13 -43 3 -4 11 3 17 16 11 21 18 22 131 24 l120 3
-28 -25 c-16 -14 -27 -31 -25 -37 3 -7 21 3 43 24 35 31 38 38 26 52 -25 30
-69 57 -76 46z"/>
<path d="M142 182 c-18 -15 -32 -31 -32 -35 0 -12 53 -56 68 -57 17 0 15 17
-3 24 -8 3 -15 10 -15 15 0 6 51 12 126 13 107 3 129 6 138 20 5 9 7 21 2 25
-4 4 -12 0 -17 -10 -9 -15 -26 -17 -129 -17 -109 0 -145 8 -105 24 15 5 21 26
8 26 -5 0 -23 -13 -41 -28z"/>
</g>
</svg>
