<?xml version="1.0" standalone="no"?>
<!DOCTYPE svg PUBLIC "-//W3C//DTD SVG 20010904//EN"
 "http://www.w3.org/TR/2001/REC-SVG-20010904/DTD/svg10.dtd">
<svg version="1.0" xmlns="http://www.w3.org/2000/svg"
 width="30.000000pt" height="30.000000pt" viewBox="0 0 30.000000 30.000000"
 preserveAspectRatio="xMidYMid meet">

<g transform="translate(0.000000,30.000000) scale(0.100000,-0.100000)"
fill="#000000" stroke="none">
<path d="M110 235 c-6 -8 -10 -20 -7 -27 4 -8 6 -7 6 4 1 9 9 22 19 27 9 6 12
11 6 11 -6 0 -17 -7 -24 -15z"/>
<path d="M168 240 c12 -5 22 -15 22 -21 0 -7 3 -9 6 -6 10 10 -16 37 -35 36
-11 0 -9 -3 7 -9z"/>
<path d="M191 188 c-1 -9 -9 -22 -18 -27 -10 -6 -13 -11 -7 -11 17 0 37 27 31
42 -4 8 -6 7 -6 -4z"/>
<path d="M100 184 c0 -17 27 -37 42 -31 8 4 7 6 -4 6 -9 1 -22 9 -27 19 -6 9
-11 12 -11 6z"/>
<path d="M76 79 c-14 -11 -26 -26 -26 -32 0 -7 5 -4 11 6 6 11 25 25 43 33 17
7 24 13 15 14 -9 0 -28 -9 -43 -21z"/>
<path d="M187 89 c18 -5 39 -19 48 -31 8 -13 15 -17 15 -11 0 18 -50 53 -74
52 -15 -1 -12 -4 11 -10z"/>
</g>
</svg>
