<svg width="22" height="22" viewBox="0 0 22 22" fill="none" xmlns="http://www.w3.org/2000/svg">
<path d="M10.0835 8.25001H11.9168V6.41668H10.0835M11.0002 18.3333C6.95766 18.3333 3.66683 15.0425 3.66683 11C3.66683 6.95751 6.95766 3.66668 11.0002 3.66668C15.0427 3.66668 18.3335 6.95751 18.3335 11C18.3335 15.0425 15.0427 18.3333 11.0002 18.3333ZM11.0002 1.83334C9.79638 1.83334 8.60438 2.07045 7.49223 2.53111C6.38008 2.99178 5.36955 3.66699 4.51835 4.5182C2.79927 6.23728 1.8335 8.56886 1.8335 11C1.8335 13.4312 2.79927 15.7627 4.51835 17.4818C5.36955 18.333 6.38008 19.0082 7.49223 19.4689C8.60438 19.9296 9.79638 20.1667 11.0002 20.1667C13.4313 20.1667 15.7629 19.2009 17.482 17.4818C19.2011 15.7627 20.1668 13.4312 20.1668 11C20.1668 9.79623 19.9297 8.60423 19.4691 7.49208C19.0084 6.37993 18.3332 5.3694 17.482 4.5182C16.6308 3.66699 15.6202 2.99178 14.5081 2.53111C13.3959 2.07045 12.2039 1.83334 11.0002 1.83334ZM10.0835 15.5833H11.9168V10.0833H10.0835V15.5833Z" fill="#156778"/>
</svg>
