<svg width="17" height="18" viewBox="0 0 17 18" fill="none" xmlns="http://www.w3.org/2000/svg">
<path d="M8.25 0C3.66667 0 0 3.66667 0 8.25V14.6667C0 15.396 0.289731 16.0955 0.805456 16.6112C1.32118 17.1269 2.02065 17.4167 2.75 17.4167H5.5V10.0833H1.83333V8.25C1.83333 6.54819 2.50937 4.91609 3.71273 3.71273C4.91609 2.50937 6.54819 1.83333 8.25 1.83333C9.95181 1.83333 11.5839 2.50937 12.7873 3.71273C13.9906 4.91609 14.6667 6.54819 14.6667 8.25V10.0833H11V17.4167H13.75C14.4793 17.4167 15.1788 17.1269 15.6945 16.6112C16.2103 16.0955 16.5 15.396 16.5 14.6667V8.25C16.5 3.66667 12.8058 0 8.25 0Z" fill="#156778"/>
</svg>
