<svg width="19" height="19" viewBox="0 0 19 19" fill="none" xmlns="http://www.w3.org/2000/svg">
<path d="M13.1633 11C13.2367 10.395 13.2917 9.79 13.2917 9.16667C13.2917 8.54333 13.2367 7.93833 13.1633 7.33333H16.2617C16.4083 7.92 16.5 8.53417 16.5 9.16667C16.5 9.79917 16.4083 10.4133 16.2617 11M11.5408 16.0967C12.0908 15.0792 12.5125 13.9792 12.8058 12.8333H15.51C14.63 14.3458 13.2275 15.5192 11.5408 16.0967ZM11.3117 11H7.02167C6.93 10.395 6.875 9.79 6.875 9.16667C6.875 8.54333 6.93 7.92917 7.02167 7.33333H11.3117C11.3942 7.92917 11.4583 8.54333 11.4583 9.16667C11.4583 9.79 11.3942 10.395 11.3117 11ZM9.16667 16.4633C8.40583 15.3633 7.79167 14.1442 7.41583 12.8333H10.9175C10.5417 14.1442 9.9275 15.3633 9.16667 16.4633ZM5.5 5.5H2.82333C3.69417 3.97833 5.10583 2.805 6.78333 2.23667C6.23333 3.25417 5.82083 4.35417 5.5 5.5ZM2.82333 12.8333H5.5C5.82083 13.9792 6.23333 15.0792 6.78333 16.0967C5.10583 15.5192 3.69417 14.3458 2.82333 12.8333ZM2.07167 11C1.925 10.4133 1.83333 9.79917 1.83333 9.16667C1.83333 8.53417 1.925 7.92 2.07167 7.33333H5.17C5.09667 7.93833 5.04167 8.54333 5.04167 9.16667C5.04167 9.79 5.09667 10.395 5.17 11M9.16667 1.86083C9.9275 2.96083 10.5417 4.18917 10.9175 5.5H7.41583C7.79167 4.18917 8.40583 2.96083 9.16667 1.86083ZM15.51 5.5H12.8058C12.5125 4.35417 12.0908 3.25417 11.5408 2.23667C13.2275 2.81417 14.63 3.97833 15.51 5.5ZM9.16667 0C4.0975 0 0 4.125 0 9.16667C0 11.5978 0.965771 13.9294 2.68485 15.6485C3.53606 16.4997 4.54658 17.1749 5.65873 17.6356C6.77089 18.0962 7.96288 18.3333 9.16667 18.3333C11.5978 18.3333 13.9294 17.3676 15.6485 15.6485C17.3676 13.9294 18.3333 11.5978 18.3333 9.16667C18.3333 7.96288 18.0962 6.77089 17.6356 5.65873C17.1749 4.54658 16.4997 3.53606 15.6485 2.68485C14.7973 1.83365 13.7867 1.15844 12.6746 0.697771C11.5624 0.237103 10.3705 0 9.16667 0Z" fill="#156778"/>
</svg>
