<svg width="21" height="21" viewBox="0 0 21 21" fill="none" xmlns="http://www.w3.org/2000/svg">
<path d="M10.0833 12.8333C10.8472 12.8333 11.4965 12.566 12.0312 12.0312C12.566 11.4965 12.8333 10.8472 12.8333 10.0833C12.8333 9.31944 12.566 8.67014 12.0312 8.13542C11.4965 7.60069 10.8472 7.33333 10.0833 7.33333C9.31944 7.33333 8.67014 7.60069 8.13542 8.13542C7.60069 8.67014 7.33333 9.31944 7.33333 10.0833C7.33333 10.8472 7.60069 11.4965 8.13542 12.0312C8.67014 12.566 9.31944 12.8333 10.0833 12.8333ZM10.0833 14.6667C8.81528 14.6667 7.73437 14.2198 6.84062 13.326C5.94687 12.4323 5.5 11.3514 5.5 10.0833C5.5 8.81528 5.94687 7.73437 6.84062 6.84062C7.73437 5.94687 8.81528 5.5 10.0833 5.5C11.3514 5.5 12.4323 5.94687 13.326 6.84062C14.2198 7.73437 14.6667 8.81528 14.6667 10.0833C14.6667 11.3514 14.2198 12.4323 13.326 13.326C12.4323 14.2198 11.3514 14.6667 10.0833 14.6667ZM3.66667 11H0V9.16667H3.66667V11ZM20.1667 11H16.5V9.16667H20.1667V11ZM9.16667 3.66667V0H11V3.66667H9.16667ZM9.16667 20.1667V16.5H11V20.1667H9.16667ZM4.95 6.1875L2.63542 3.96458L3.94167 2.6125L6.14167 4.90417L4.95 6.1875ZM16.225 17.5542L14.0021 15.2396L15.2167 13.9792L17.5312 16.2021L16.225 17.5542ZM13.9792 4.95L16.2021 2.63542L17.5542 3.94167L15.2625 6.14167L13.9792 4.95ZM2.6125 16.225L4.92708 14.0021L6.1875 15.2167L3.96458 17.5312L2.6125 16.225Z" fill="#156778"/>
</svg>
