<svg width="324" height="309" viewBox="0 0 324 309" fill="none" xmlns="http://www.w3.org/2000/svg">
<rect y="31.7876" width="41.8637" height="211.949" fill="#2B6F71"/>
<path d="M9.51587 65.0271L41.7525 31.7878L124.641 154.339L95.6219 192.822L9.51587 65.0271Z" fill="#2B6F71"/>
<path d="M162.479 32.9545L215.503 32.9546L98.9506 188.086L69.4558 154.54L162.479 32.9545Z" fill="#2B6F71"/>
<path d="M207.651 79.2329L243.83 32.4121L323.621 32.3554L323.857 79.1506L207.651 79.2329Z" fill="#2B6F71"/>
<rect width="47.3626" height="140.112" transform="matrix(-0.00504509 -0.999987 0.99997 -0.00781354 183.893 242.281)" fill="#5ED2D2"/>
<path d="M187.597 111.713L196.949 99.2803L216.93 99.2803L216.93 241.961H175.066L176.017 127.106L187.597 111.713Z" fill="#5ED2D2"/>
<path d="M236.168 157.834L235.959 116.392L304.253 115.858L304.462 157.3L236.168 157.834Z" fill="#2B6F71"/>
</svg>
