<svg width="324" height="314" viewBox="0 0 324 314" fill="none" xmlns="http://www.w3.org/2000/svg">
<rect y="31.7876" width="41.8637" height="211.949" fill="#2B6F71"/>
<path d="M9.51581 65.0271L41.7524 31.7879L124.641 154.339L95.6218 192.822L9.51581 65.0271Z" fill="#2B6F71"/>
<path d="M162.479 32.9545L215.503 32.9546L98.9507 188.086L69.4558 154.54L162.479 32.9545Z" fill="#2B6F71"/>
<path d="M207.651 79.2329L243.83 32.4121L323.621 32.3554L323.857 79.1506L207.651 79.2329Z" fill="#2B6F71"/>
<rect width="47.3626" height="140.112" transform="matrix(-0.00504509 -0.999987 0.99997 -0.00781354 183.893 242.281)" fill="#5ED2D2"/>
<path d="M187.597 111.713L196.949 99.2804L216.93 99.2804L216.93 241.961H175.066L176.017 127.106L187.597 111.713Z" fill="#5ED2D2"/>
<path d="M236.169 157.834L235.959 116.392L304.253 115.858L304.462 157.3L236.169 157.834Z" fill="#2B6F71"/>
<path d="M27.6759 314V281.825H33.7059L48.6009 292.265H48.8259L63.7209 281.825H69.7509V314H62.5509V290.825L52.3359 297.665V314H45.1359V297.665L34.8759 290.825V314H27.6759ZM82.8097 314V281.825H90.0097V314H82.8097ZM103.051 314V281.825H110.251V308.15H133.786V314H103.051ZM145.045 314V281.825H152.245V308.15H175.78V314H145.045ZM187.039 314V281.825H194.239V314H187.039ZM207.28 314V281.825H213.31L228.205 292.265H228.43L243.325 281.825H249.355V314H242.155V290.825L231.94 297.665V314H224.74V297.665L214.48 290.825V314H207.28ZM262.414 314V281.825H297.694V287.675H269.614V294.785H295.084V300.635H269.614V308.15H297.694V314H262.414Z" fill="#2B6F71"/>
</svg>
