<svg width="307" height="229" viewBox="0 0 307 229" fill="none" xmlns="http://www.w3.org/2000/svg">
<ellipse cx="153.5" cy="173.5" rx="153.5" ry="55.5" fill="#EDFEFA"/>
<path d="M228.769 197.459L145.731 197.151C135.743 197.115 127.685 190.553 127.722 182.495L128.605 14.535C128.65 6.47083 136.783 -0.0360661 146.778 0.000150451L229.816 0.30799C239.804 0.344206 247.862 6.90543 247.825 14.9636L246.942 182.924C246.904 190.988 238.764 197.495 228.769 197.459Z" fill="#2B6F71"/>
<path d="M229.695 6.10853L213.595 6.04817C211.432 6.04213 209.674 7.5089 209.667 9.3318L209.652 11.6859C209.644 13.5088 207.886 14.9755 205.724 14.9695L174.338 14.8548C172.176 14.8488 170.441 13.3639 170.448 11.541L170.463 9.18693C170.47 7.36403 168.727 5.88519 166.573 5.87312L160.909 5.84898L146.821 5.79465C139.826 5.77051 134.125 10.3278 134.095 15.9715L133.234 179.912C133.205 185.555 138.846 190.149 145.841 190.173L228.715 190.481C235.71 190.505 241.411 185.948 241.441 180.304L242.301 16.3638C242.339 10.7261 236.69 6.13267 229.695 6.10853Z" fill="white"/>
<path d="M112.925 197.958L61.8535 197.768C55.7106 197.746 50.7549 193.711 50.7779 188.755L51.3209 85.4544C51.3485 80.4946 56.3502 76.4927 62.4977 76.515L113.569 76.7043C119.712 76.7266 124.667 80.7619 124.644 85.7179L124.101 189.018C124.078 193.978 119.072 197.98 112.925 197.958Z" fill="#2B6F71"/>
<path d="M113.494 80.2728L103.592 80.2357C102.262 80.232 101.181 81.1341 101.176 82.2552L101.167 83.703C101.162 84.8242 100.081 85.7263 98.7511 85.7226L79.4482 85.652C78.1184 85.6483 77.0509 84.7351 77.0555 83.6139L77.0647 82.1661C77.0693 81.045 75.9972 80.1355 74.6719 80.128L71.1887 80.1132L62.5242 80.0798C58.2219 80.0649 54.7156 82.8678 54.6972 86.3388L54.168 187.167C54.1496 190.638 57.6191 193.463 61.9214 193.478L112.891 193.667C117.194 193.682 120.7 190.879 120.718 187.408L121.247 86.5801C121.27 83.1128 117.796 80.2877 113.494 80.2728Z" fill="white"/>
<rect x="143.111" y="51.8334" width="94.9291" height="9.49836" rx="4.74918" fill="#4CA5A2"/>
<rect x="152.011" y="54.2073" width="80.0964" height="4.74918" rx="2.37459" fill="#2B6F71"/>
<path d="M217.11 56.5798H212.531H161.271C155.026 56.5798 149.961 59.1262 149.886 62.2803C149.886 62.3035 149.88 62.3257 149.88 62.3489C149.88 62.3721 149.886 62.3942 149.886 62.4174V155.792H193.9C196.388 157.026 199.792 157.789 203.549 157.789C207.307 157.789 210.709 157.026 213.199 155.792C216.856 153.978 217.11 151.95 217.11 149.521L217.351 62.3489C217.351 59.1626 222.451 56.5798 228.742 56.5798H217.11Z" fill="#FF4267"/>
<g filter="url(#filter0_d_1_2607)">
<path d="M192.712 149.314C192.712 148.5 192.898 147.714 193.222 146.967H192.712L143.113 151.938L145.681 154.219C148.366 156.603 152.654 158.013 157.218 158.013H206.18C198.742 158.013 192.712 154.118 192.712 149.314Z" fill="#2B6F71"/>
</g>
<path d="M192.421 91.0353L200.702 102.579C201.112 103.151 200.865 103.882 200.148 104.213L176.063 115.325C175.347 115.655 174.435 115.46 174.024 114.887L165.743 103.343C165.333 102.772 165.581 102.04 166.296 101.71L190.38 90.5987C191.097 90.2679 192.011 90.4637 192.421 91.0353Z" fill="#2B6F71"/>
<path d="M182.729 105.381L173.344 109.711L173.933 110.531L183.318 106.202L182.729 105.381Z" fill="#FDFEFF"/>
<path d="M179.07 109.148L174.465 111.273L175.054 112.094L179.659 109.969L179.07 109.148Z" fill="#FDFEFF"/>
<path d="M181.803 107.888L179.712 108.852L180.301 109.673L182.391 108.709L181.803 107.888Z" fill="#FDFEFF"/>
<path d="M175.238 104.7L171.595 106.381C171.329 106.504 171.238 106.775 171.391 106.988L172.38 108.367C172.533 108.58 172.871 108.653 173.137 108.53L176.78 106.849C177.046 106.727 177.137 106.456 176.984 106.243L175.996 104.865C175.844 104.651 175.504 104.578 175.238 104.7Z" fill="#FDFEFF"/>
<path d="M191.06 94.6884C190.874 94.1215 190.15 93.7827 189.444 93.9316C188.737 94.0806 188.315 94.6609 188.501 95.2278C188.687 95.7947 189.411 96.1335 190.117 95.9846C190.824 95.8356 191.246 95.2553 191.06 94.6884Z" fill="#FDFEFF"/>
<path d="M189.558 95.411C189.348 94.8495 188.61 94.5305 187.91 94.6985C187.21 94.8665 186.813 95.458 187.023 96.0195C187.233 96.581 187.97 96.9 188.67 96.732C189.37 96.564 189.767 95.9725 189.558 95.411Z" fill="#FDFEFF"/>
<rect x="146.189" y="164.219" width="83.6023" height="17.2698" rx="8.63488" fill="#FFAF2A"/>
<path d="M186.058 171.144C186.058 171.443 185.986 171.723 185.842 171.984C185.703 172.245 185.482 172.456 185.178 172.616C184.879 172.776 184.5 172.856 184.042 172.856H183.106V175H181.986V169.416H184.042C184.474 169.416 184.842 169.491 185.146 169.64C185.45 169.789 185.676 169.995 185.826 170.256C185.98 170.517 186.058 170.813 186.058 171.144ZM183.994 171.952C184.303 171.952 184.532 171.883 184.682 171.744C184.831 171.6 184.906 171.4 184.906 171.144C184.906 170.6 184.602 170.328 183.994 170.328H183.106V171.952H183.994ZM186.565 172.768C186.565 172.32 186.653 171.923 186.829 171.576C187.01 171.229 187.253 170.963 187.557 170.776C187.866 170.589 188.21 170.496 188.589 170.496C188.919 170.496 189.207 170.563 189.453 170.696C189.703 170.829 189.903 170.997 190.053 171.2V170.568H191.181V175H190.053V174.352C189.909 174.56 189.709 174.733 189.453 174.872C189.202 175.005 188.911 175.072 188.581 175.072C188.207 175.072 187.866 174.976 187.557 174.784C187.253 174.592 187.01 174.323 186.829 173.976C186.653 173.624 186.565 173.221 186.565 172.768ZM190.053 172.784C190.053 172.512 189.999 172.28 189.893 172.088C189.786 171.891 189.642 171.741 189.461 171.64C189.279 171.533 189.085 171.48 188.877 171.48C188.669 171.48 188.477 171.531 188.301 171.632C188.125 171.733 187.981 171.883 187.869 172.08C187.762 172.272 187.709 172.501 187.709 172.768C187.709 173.035 187.762 173.269 187.869 173.472C187.981 173.669 188.125 173.821 188.301 173.928C188.482 174.035 188.674 174.088 188.877 174.088C189.085 174.088 189.279 174.037 189.461 173.936C189.642 173.829 189.786 173.68 189.893 173.488C189.999 173.291 190.053 173.056 190.053 172.784ZM196.515 170.568L193.771 177.096H192.579L193.539 174.888L191.763 170.568H193.019L194.163 173.664L195.323 170.568H196.515Z" fill="white"/>
<path d="M178.166 160.103C178.166 160.252 178.13 160.392 178.058 160.523C177.989 160.654 177.878 160.759 177.726 160.839C177.577 160.919 177.388 160.959 177.158 160.959H176.69V162.031H176.13V159.239H177.158C177.374 159.239 177.558 159.276 177.71 159.351C177.862 159.426 177.976 159.528 178.05 159.659C178.128 159.79 178.166 159.938 178.166 160.103ZM177.134 160.507C177.289 160.507 177.404 160.472 177.478 160.403C177.553 160.331 177.59 160.231 177.59 160.103C177.59 159.831 177.438 159.695 177.134 159.695H176.69V160.507H177.134ZM178.42 160.915C178.42 160.691 178.464 160.492 178.552 160.319C178.643 160.146 178.764 160.012 178.916 159.919C179.071 159.826 179.243 159.779 179.432 159.779C179.597 159.779 179.741 159.812 179.864 159.879C179.989 159.946 180.089 160.03 180.164 160.131V159.815H180.728V162.031H180.164V161.707C180.092 161.811 179.992 161.898 179.864 161.967C179.739 162.034 179.593 162.067 179.428 162.067C179.241 162.067 179.071 162.019 178.916 161.923C178.764 161.827 178.643 161.692 178.552 161.519C178.464 161.343 178.42 161.142 178.42 160.915ZM180.164 160.923C180.164 160.787 180.137 160.671 180.084 160.575C180.031 160.476 179.959 160.402 179.868 160.351C179.777 160.298 179.68 160.271 179.576 160.271C179.472 160.271 179.376 160.296 179.288 160.347C179.2 160.398 179.128 160.472 179.072 160.571C179.019 160.667 178.992 160.782 178.992 160.915C178.992 161.048 179.019 161.166 179.072 161.267C179.128 161.366 179.2 161.442 179.288 161.495C179.379 161.548 179.475 161.575 179.576 161.575C179.68 161.575 179.777 161.55 179.868 161.499C179.959 161.446 180.031 161.371 180.084 161.275C180.137 161.176 180.164 161.059 180.164 160.923ZM183.395 159.815L182.023 163.079H181.427L181.907 161.975L181.019 159.815H181.647L182.219 161.363L182.799 159.815H183.395Z" fill="white"/>
<g clip-path="url(#clip0_1_2607)">
<path d="M106.178 116.007H69.2442C68.1116 116.007 67.1924 116.742 67.1924 117.652V155.499L75.3998 150.562L81.5553 155.499L87.7109 150.562L93.8665 155.499L100.022 150.562L108.229 155.499V117.652C108.229 116.742 107.31 116.007 106.178 116.007ZM89.7628 142.335H75.3998V139.044H89.7628V142.335ZM89.7628 135.753H75.3998V132.462H89.7628V135.753ZM89.7628 129.171H75.3998V125.88H89.7628V129.171ZM100.022 142.335H93.8665V139.044H100.022V142.335ZM100.022 135.753H93.8665V132.462H100.022V135.753ZM100.022 129.171H93.8665V125.88H100.022V129.171Z" fill="#FFAF2A"/>
</g>
<defs>
<filter id="filter0_d_1_2607" x="113.113" y="121.967" width="123.067" height="71.0465" filterUnits="userSpaceOnUse" color-interpolation-filters="sRGB">
<feFlood flood-opacity="0" result="BackgroundImageFix"/>
<feColorMatrix in="SourceAlpha" type="matrix" values="0 0 0 0 0 0 0 0 0 0 0 0 0 0 0 0 0 0 127 0" result="hardAlpha"/>
<feOffset dy="5"/>
<feGaussianBlur stdDeviation="15"/>
<feColorMatrix type="matrix" values="0 0 0 0 0 0 0 0 0 0 0 0 0 0 0 0 0 0 0.05 0"/>
<feBlend mode="normal" in2="BackgroundImageFix" result="effect1_dropShadow_1_2607"/>
<feBlend mode="normal" in="SourceGraphic" in2="effect1_dropShadow_1_2607" result="shape"/>
</filter>
<clipPath id="clip0_1_2607">
<rect width="49.2444" height="39.4917" fill="white" transform="translate(63.0889 116.007)"/>
</clipPath>
</defs>
</svg>
