<svg width="327" height="204" viewBox="0 0 327 204" fill="none" xmlns="http://www.w3.org/2000/svg">
<path d="M163.5 204C253.799 204 327 180.271 327 151C327 121.729 253.799 98 163.5 98C73.2014 98 0 121.729 0 151C0 180.271 73.2014 204 163.5 204Z" fill="#F1F9F8"/>
<path d="M176.808 24.6669L164.939 26.8398L166.002 32.6523L177.871 30.4794L176.808 24.6669Z" fill="#6097B2"/>
<path d="M228.71 6.14784L243.737 88.3296C244.483 92.4001 241.793 96.2983 237.716 97.0451L100.861 122.1C96.7931 122.847 92.897 120.155 92.1506 116.076L77.1241 33.9029C76.3777 29.8323 79.0762 25.926 83.1445 25.1874L219.999 0.124135C224.068 -0.622674 227.972 2.07733 228.71 6.14784Z" fill="#FF4267"/>
<path d="M229.363 9.67501L77.7705 37.4287L82.3799 62.6324L233.972 34.8787L229.363 9.67501Z" fill="#11393D"/>
<path d="M122.304 60.5132L96.1538 65.3008L97.2168 71.1133L123.367 66.3257L122.304 60.5132Z" fill="#CFFCF9"/>
<path d="M152.104 55.0552L125.954 59.8428L127.017 65.6553L153.167 60.8677L152.104 55.0552Z" fill="#6097B2"/>
<path d="M272 42.4524V125.548C272 129.661 268.656 133 264.517 133H125.483C121.352 133 118 129.67 118 125.548V42.4524C118 38.3385 121.352 35 125.483 35H264.509C268.648 35 272 38.3385 272 42.4524Z" fill="#2B6F71"/>
<path d="M185.337 95.8467H131.161V101.755H185.337V95.8467Z" fill="#FDFEFF"/>
<path d="M157.744 107.099H131.161V113.007H157.744V107.099Z" fill="#FDFEFF"/>
<path d="M173.517 107.099H161.452V113.007H173.517V107.099Z" fill="#FDFEFF"/>
<path d="M154.964 73.4756H133.933C132.399 73.4756 131.161 74.7148 131.161 76.2495V86.1713C131.161 87.706 132.399 88.9452 133.933 88.9452H154.964C156.497 88.9452 157.736 87.706 157.736 86.1713V76.2577C157.744 74.723 156.497 73.4756 154.964 73.4756Z" fill="#FDFEFF"/>
<path d="M254.735 58.8055C255.692 55.2755 253.608 51.6376 250.08 50.68C246.552 49.7224 242.916 51.8078 241.959 55.3378C241.001 58.8678 243.086 62.5058 246.614 63.4633C250.142 64.4209 253.778 62.3355 254.735 58.8055Z" fill="#FDFEFF"/>
<path d="M245.97 58.9675C246.808 55.4071 244.602 51.8418 241.043 51.0042C237.485 50.1666 233.921 52.3739 233.084 55.9343C232.247 59.4946 234.453 63.0599 238.012 63.8975C241.57 64.7351 245.133 62.5279 245.97 58.9675Z" fill="#FDFEFF"/>
<path d="M111.869 111.193L115.863 122.1C116.06 122.642 115.781 123.241 115.248 123.438L97.088 130.102C96.5467 130.299 95.9479 130.02 95.7511 129.486L91.7566 118.579C91.5597 118.038 91.8386 117.439 92.3717 117.242L110.532 110.578C111.073 110.381 111.672 110.66 111.869 111.193Z" fill="#FFAF2A"/>
<path d="M103.076 122.31L96.0068 124.904L96.2892 125.675L103.359 123.081L103.076 122.31Z" fill="#FDFEFF"/>
<path d="M100.021 125.103L96.5474 126.377L96.8298 127.147L100.303 125.873L100.021 125.103Z" fill="#FDFEFF"/>
<path d="M102.074 124.344L100.503 124.921L100.785 125.691L102.356 125.115L102.074 124.344Z" fill="#FDFEFF"/>
<path d="M97.3912 121.082L95.9394 121.615C95.3817 121.82 95.0946 122.436 95.2996 122.994C95.5047 123.552 96.1199 123.839 96.6776 123.634L98.1294 123.101C98.6872 122.896 98.9743 122.28 98.7692 121.722C98.5723 121.164 97.949 120.877 97.3912 121.082Z" fill="#FDFEFF"/>
<path d="M109.449 115.149C109.956 115.149 110.368 114.737 110.368 114.23C110.368 113.722 109.956 113.311 109.449 113.311C108.942 113.311 108.53 113.722 108.53 114.23C108.53 114.737 108.942 115.149 109.449 115.149Z" fill="#FDFEFF"/>
<path d="M108.426 115.615C108.93 115.554 109.288 115.096 109.227 114.592C109.166 114.088 108.709 113.729 108.205 113.79C107.701 113.851 107.342 114.309 107.403 114.813C107.464 115.317 107.922 115.676 108.426 115.615Z" fill="#FDFEFF"/>
<path d="M61.1621 88.1819C61.8018 97.9396 72.8011 97.4062 72.8011 97.4062C72.8011 97.4062 72.6452 52.7536 69.635 51.0466C66.6084 49.3396 59.2509 58.9168 61.1621 88.1819Z" fill="#6097B2"/>
<path d="M47.6853 181.204C48.0216 180.876 48.4399 180.367 48.9402 179.571C49.9573 177.946 51.9094 178.307 51.9094 178.307C52.5164 178.833 52.6148 181.245 52.6312 181.812H53.3858C53.6483 181.13 54.5752 178.028 54.2963 176.863C54.0666 175.927 53.3612 173.761 53.066 172.727C52.9839 172.44 52.9101 172.185 52.9019 171.89C53.7467 168.353 56.6504 156.272 61.6947 146.539C65.6975 138.809 66.9934 135.731 67.789 128.805C68.5847 121.87 74.9004 104.546 74.9004 104.546C74.9004 104.546 66.0338 80.4426 62.3755 95.4362C58.7255 110.43 58.2334 128.813 57.6182 132.481C57.003 136.15 51.5157 161.869 48.243 172.645C47.6196 174.696 44.593 178.791 43.4119 179.743C43.4037 179.752 43.4037 179.752 43.3791 179.752C43.2314 179.785 42.4768 180.014 41.8042 180.581C41.5992 180.753 41.4187 180.966 41.2383 181.204H47.6853Z" fill="#EF6E4B"/>
<path d="M90.1897 100.262C91.1658 115.543 88.2704 119.334 87.1467 125.612C86.2937 130.364 88.7133 137.249 86.2773 144.906C84.6532 150.002 81.0442 171.619 81.0442 171.619V180.589H75.0073C75.0073 180.589 77.386 170.659 77.386 166.925C77.386 150.815 79.6088 131.611 79.2807 124.316C78.9608 117.176 76.5658 103.109 76.5658 103.109L90.1897 100.262Z" fill="#FF8B66"/>
<path d="M82.0366 181.82C82.1924 180.539 81.8561 178.307 81.8561 177.224C81.8561 175.903 80.9867 173.473 80.9867 173.473C79.6005 172.045 77.1726 173.564 77.1726 173.564C76.0899 175.271 75.9423 176.617 75.0072 177.445C74.3428 178.028 74.2772 180.671 74.2936 181.82H82.0366Z" fill="#FFAF2A"/>
<path d="M49.9658 166.407C53.1565 154.13 57.1018 135.55 57.6103 132.473C57.9384 130.487 58.2419 124.167 59.0211 116.42C59.2262 107.582 60.2433 87.3769 65.2056 75.9121L76.8857 76.1829C76.4099 85.2924 85.2356 95.1158 74.4906 105.653C73.088 109.584 68.4537 122.928 67.7812 128.804C66.9855 135.739 65.6978 138.808 61.6869 146.539C58.2173 153.236 55.7648 161.032 54.2966 166.407H49.9658Z" fill="#EF6E4B"/>
<path d="M47.6855 181.819C48.3335 181.819 49.5885 180.465 50.4743 179.784C51.2945 179.144 51.7703 179.169 51.7703 179.169C52.3772 179.694 52.6151 181.253 52.6315 181.819H53.3861C53.6486 181.138 54.5754 178.036 54.2966 176.871C54.0669 175.935 53.5255 174.647 53.3615 172.874C50.991 171.52 48.9487 176.099 45.8892 178.668C44.3554 179.965 43.3957 179.735 43.3957 179.735C43.3957 179.735 43.3875 179.743 43.3629 179.743C43.2317 179.817 42.313 179.883 41.4682 180.334C40.1969 181.097 40.1722 181.573 40 181.811H47.6855V181.819Z" fill="#FFAF2A"/>
<path d="M89.5417 115.871C88.7953 119.753 87.729 122.346 87.1466 125.612C86.2936 130.364 88.7133 137.249 86.2772 144.906C85.1207 148.533 82.9635 160.499 81.8152 167.113H77.3859C77.3859 167.048 77.3859 166.982 77.3859 166.925C77.3859 150.815 79.6088 131.611 79.2807 124.316C79.1412 121.238 78.6163 116.872 78.0667 112.9C78.0667 112.884 75.9587 99.318 74.2937 98.3332C73.293 97.7423 65.2056 75.9043 65.2056 75.9043L82.6846 76.7168C82.6846 76.7168 92.8636 85.1779 90.1897 100.245C90.1897 100.245 90.1979 100.401 90.2143 100.672C90.6408 107.779 90.2225 112.358 89.5417 115.871Z" fill="#FF8B66"/>
<path d="M49.6704 167.524C52.1557 170.126 53.7469 168.46 53.7469 168.46C53.7469 168.46 59.1933 160.466 63.4256 146.802C70.701 123.298 72.7926 110.988 72.7926 110.988L74.8186 106.507L76.1638 110.061L77.2136 169.19C78.7967 171.069 81.3968 169.543 81.3968 169.543C89.1726 137.373 92.5191 105.055 92.5437 104.398C92.7241 98.6701 92.1008 93.902 91.0755 90.0039C88.3523 79.5321 82.8568 75.2646 82.8568 75.2646C81.4952 75.7078 79.6907 75.954 77.7386 76.0771C74.9006 76.2495 71.7755 76.151 69.3559 75.995C68.5602 75.9458 67.8467 75.8966 67.2397 75.8473C65.9847 75.7488 65.1973 75.6668 65.1973 75.6668C63.6963 78.5719 62.2773 85.2112 61.1618 91.6534C61.1044 91.9899 61.047 92.3181 60.9895 92.6464C60.1693 97.513 59.4065 102.15 59.1851 104.874C55.6581 147.746 49.6704 167.524 49.6704 167.524Z" fill="#343434"/>
<path d="M72.1694 28.0344C73.6868 37.4228 67.125 43.3973 79.125 43.5122C91.1249 43.6271 93.3395 45.7198 93.3395 45.7198C93.3395 45.7198 91.1249 41.7641 91.6826 31.7438C92.1502 23.3483 88.2377 18.4243 80.9048 19.0562C73.572 19.6882 71.6773 24.9486 72.1694 28.0344Z" fill="#FFAF2A"/>
<path d="M60.6861 52.7865C57.0279 58.3752 52.9924 64.0378 50.9746 66.8281V76.9798C51.5406 77.1603 52.0327 77.2342 52.4346 77.1768C55.7401 76.6433 64.5986 64.1445 64.5986 64.1445L72.1119 42.5938C72.1037 42.5856 65.8125 44.9409 60.6861 52.7865Z" fill="#4CA5A2"/>
<path d="M87.3601 64.4723C86.0314 66.3352 83.2426 71.5137 82.6766 76.4787C82.6766 76.4787 73.2932 79.2115 65.1976 75.6662L64.5988 64.1441C64.5988 64.1441 59.6857 55.0264 70.0451 45.6872C70.6521 45.1374 71.3165 44.5875 72.0383 44.0377C72.4074 43.7504 72.7847 43.4796 73.1784 43.2006C73.1784 43.2006 78.3294 41.8137 82.57 42.5851C84.9979 43.0282 88.6069 41.8711 91.3875 42.979C92.1831 43.2909 92.9049 43.7915 93.5201 44.5711C97.6704 49.8152 90.9117 59.4662 87.3601 64.4723Z" fill="#52D5BA"/>
<path d="M92.5766 45.2851C92.5766 45.2851 81.9957 50.5456 76.7708 50.1106C73.0798 49.7988 70.9636 47.1972 70.045 45.6872C69.6513 45.0553 69.479 44.6203 69.479 44.6203C69.479 44.6203 69.9793 44.0213 70.9718 43.2334C71.2753 43.4714 71.6362 43.7422 72.0463 44.0377C72.4154 43.7504 72.7927 43.4796 73.1864 43.2006C73.1864 43.2006 78.3375 41.8137 82.578 42.5851C85.0059 43.0282 88.6149 41.8711 91.3955 42.979C91.6333 43.2744 91.8138 43.5617 91.9696 43.8325C92.4454 44.6696 92.5766 45.2851 92.5766 45.2851Z" fill="#FF8B66"/>
<path d="M91.9618 43.8403C86.5401 45.5391 77.9933 46.4747 77.9933 46.4747L76.1724 47.9847V46.4747C75.3604 46.3762 73.4821 45.1041 72.0303 44.0455C72.3994 43.7582 72.7767 43.4874 73.1704 43.2084C73.1704 43.2084 78.3214 41.8215 82.562 42.5929C84.9899 43.0361 88.5989 41.8789 91.3794 42.9868C91.6255 43.2823 91.806 43.5695 91.9618 43.8403Z" fill="#EF6E4B"/>
<path d="M96.1612 115.141C96.0956 115.732 97.6294 116.38 97.6294 116.38C97.6294 116.38 98.1708 117.414 98.9664 117.414C99.762 117.414 101.386 114.722 100.115 113.335C98.8434 111.948 96.3745 113.311 96.1612 115.141Z" fill="#EF6E4B"/>
<path d="M88.6562 42.3145C88.6562 42.3145 82.0862 52.3758 80.9789 64.1278C79.8716 75.8798 91.9617 99.6464 91.9617 99.6464C91.9617 99.6464 93.676 99.2935 94.8243 96.93C94.8243 96.93 90.4853 76.7825 93.2577 64.1278C95.8168 52.4661 99.9754 42.3145 88.6562 42.3145Z" fill="#CFFCF9"/>
<path d="M76.1718 42.5848C76.1718 42.5848 64.1882 49.4127 62.4165 64.1273C60.6448 78.8337 61.1616 88.1811 61.1616 88.1811C61.1616 88.1811 57.2163 51.4972 72.1116 42.593C72.1034 42.5848 74.9004 41.9693 76.1718 42.5848Z" fill="#CFFCF9"/>
<path d="M77.0579 19.8195C77.0579 19.8195 87.4173 16.3481 89.5007 23.6438C91.5841 30.9396 89.4761 38.5636 83.9068 38.383C77.0251 38.1532 69.0114 23.9229 77.0579 19.8195Z" fill="#FF8B66"/>
<path d="M83.9399 28.1574C83.9727 28.6252 84.2351 28.9862 84.5304 28.9698C84.8257 28.9534 85.039 28.5513 85.0143 28.0835C84.9815 27.6157 84.7191 27.2546 84.4238 27.271C84.1203 27.2957 83.907 27.6896 83.9399 28.1574Z" fill="#343434"/>
<path d="M82.2745 30.0702C82.2253 30.5052 82.6354 30.9073 83.1768 30.9647C83.7263 31.0222 84.2021 30.7185 84.2513 30.2754C84.3005 29.8404 83.8904 29.4383 83.349 29.3808C82.7995 29.3234 82.3155 29.6353 82.2745 30.0702Z" fill="#ED7D66"/>
<path d="M83.6523 28.035C83.6523 28.035 83.8984 26.9599 84.2839 26.9353C84.6694 26.9107 85.301 27.6246 85.301 27.6246L85.9982 27.1158L85.3256 27.3784C85.3256 27.3784 84.7432 26.5578 84.2101 26.7219C83.6852 26.8942 83.6523 28.035 83.6523 28.035Z" fill="#343434"/>
<path d="M88.2704 27.4845C88.3032 27.9523 88.5657 28.3134 88.861 28.297C89.1563 28.2806 89.3695 27.8784 89.3449 27.4107C89.3121 26.9429 89.0496 26.5818 88.7544 26.5982C88.4509 26.6228 88.2376 27.0167 88.2704 27.4845Z" fill="#343434"/>
<path d="M87.9834 27.3699C87.9834 27.3699 88.2295 26.2949 88.615 26.2702C89.0005 26.2456 89.632 26.9596 89.632 26.9596L90.3292 26.4508L89.6567 26.7134C89.6567 26.7134 89.0743 25.8927 88.5411 26.0569C88.0162 26.221 87.9834 27.3699 87.9834 27.3699Z" fill="#343434"/>
<path d="M83.0783 25.5968C83.1439 25.5968 83.2095 25.5558 83.2505 25.4984C83.6852 24.8254 84.5137 24.8993 84.5219 24.9075C84.6367 24.9239 84.7433 24.8336 84.7597 24.7187C84.7761 24.6038 84.6859 24.4971 84.5711 24.4807C84.5301 24.4725 83.4638 24.374 82.8896 25.2686C82.824 25.3671 82.8568 25.4984 82.9552 25.564C82.988 25.5886 83.029 25.5968 83.0783 25.5968Z" fill="#343434"/>
<path d="M87.8518 24.4894C87.8928 24.4894 87.942 24.473 87.9749 24.4402C88.59 23.9314 89.3364 24.2515 89.3692 24.2597C89.4759 24.3089 89.6071 24.2597 89.6481 24.1448C89.6973 24.0381 89.6481 23.9068 89.5415 23.8657C89.5005 23.8493 88.5162 23.4226 87.696 24.1037C87.6057 24.1776 87.5893 24.3171 87.6714 24.4074C87.7206 24.4648 87.7862 24.4894 87.8518 24.4894Z" fill="#343434"/>
<path d="M88.0077 28.8223C88.0077 28.8223 89.8532 28.8387 89.6809 29.487C89.5005 30.1353 88.4342 30.9806 88.4342 30.9806C88.4342 30.9806 87.5976 29.6347 88.0077 28.8223Z" fill="#DD774E"/>
<path d="M88.902 32.1377C88.902 32.1377 87.3354 33.1471 84.604 32.2608C84.604 32.2608 85.0387 34.928 86.7776 34.5176C88.5165 34.1073 88.902 32.1377 88.902 32.1377Z" fill="#343434"/>
<path d="M81.184 23.5704C81.184 23.5704 78.8135 26.5905 78.9365 30.5133C78.9365 30.5133 77.1977 28.3796 76.2872 30.2343C75.3768 32.089 77.9933 33.5498 77.9933 33.5498C77.9933 33.5498 79.9454 38.0717 78.3296 38.1291C76.7137 38.1948 71.5135 30.5954 72.465 27.5343C73.4164 24.4732 76.32 21.4285 81.184 23.5704Z" fill="#FFAF2A"/>
<path d="M79.1415 33.1553C79.9371 35.2972 82.9801 39.0066 86.2118 37.948C86.2118 37.948 85.9986 42.0431 87.3355 43.2003C87.3355 43.2003 82.7095 45.4899 80.905 45.6951C78.8298 45.9331 78.7478 44.0291 78.9036 43.1756C80.0437 37.037 77.9932 33.541 77.9932 33.541C78.8626 34.1237 79.1415 33.1553 79.1415 33.1553Z" fill="#EF6E4B"/>
<path d="M83.2589 20.9275C83.2589 20.9275 85.3095 20.312 87.3355 22.2898C89.3614 24.2594 90.0832 30.5047 91.6745 31.7521C91.6745 31.7521 93.8563 19.1138 84.8174 17.333C75.7785 15.5521 70.2583 21.1245 72.3991 29.0357C72.3991 29.0357 76.9104 29.5527 79.125 28.2561C81.3396 26.9594 84.0546 23.7096 83.2589 20.9275Z" fill="#FFAF2A"/>
<path d="M47.9155 57.8663L49.6708 68.6089C49.6708 68.6089 50.6715 67.2548 52.2053 65.1128C53.9606 62.6672 58.8737 71.5058 58.8737 71.5058C56.4705 74.3289 53.9032 76.9304 52.435 77.1684C49.1294 77.7019 46.4145 74.6654 45.8813 72.7614C44.4213 67.5338 45.5778 61.6414 45.9716 60.2134C46.718 57.4642 47.9155 57.8663 47.9155 57.8663Z" fill="#4CA5A2"/>
<path d="M44.9375 59.0311C44.9375 59.0311 45.0605 56.9384 46.2417 56.8563C46.8732 56.8153 48.4481 58.2433 48.3907 58.5633C48.2922 59.0886 47.3572 58.7849 47.3572 58.7849C47.3572 58.7849 48.7598 59.6794 48.891 60.2539C49.0222 60.8284 48.0954 60.7135 48.0954 60.7135C48.0954 60.7135 49.7604 62.0266 48.5465 62.3302C48.5465 62.3302 49.0632 62.9047 48.0298 63.036C48.0298 63.036 48.038 64.0044 47.2177 63.9715C46.176 63.9305 45.0113 61.6819 44.9375 59.0311Z" fill="#FF8B66"/>
<path d="M100.467 109.223C100.467 109.223 103.404 113.154 103.1 114.04C102.797 114.935 100.467 115.961 100.467 115.961C100.467 115.961 100.024 117.569 98.9662 117.405C98.9662 117.405 99.4337 116.453 99.0975 115.468C98.7612 114.484 97.1617 114.188 97.1617 114.188L96.161 115.132C96.161 115.132 96.0954 110.873 96.7434 109.633C97.3996 108.402 100.467 109.223 100.467 109.223Z" fill="#FF8B66"/>
<path d="M95.3817 45.2606C93.1507 42.8806 90.8951 47.5667 89.4761 52.9749C88.0571 58.3831 90.1979 78.4238 90.1979 78.4238L96.1609 109.814C96.1609 109.814 99.3926 111.234 100.992 109.814C100.992 109.814 98.6544 82.7405 97.5225 77.5621C97.5225 77.5703 99.5895 49.7578 95.3817 45.2606Z" fill="#4CA5A2"/>
<g filter="url(#filter0_d_2_1616)">
<path d="M41.0772 59.3767C40.507 59.3702 40.0495 58.8427 40.0555 58.1984L40.249 37.1665C40.255 36.5223 40.722 36.0053 41.2923 36.0118L51.8115 36.1316C52.3817 36.1381 52.8392 36.6656 52.8332 37.3099L52.6397 58.3418C52.6338 58.986 52.1667 59.503 51.5965 59.4965L41.0772 59.3767Z" fill="white"/>
<path d="M51.7184 36.5869C52.1428 36.5869 52.4857 36.9782 52.4857 37.4624V58.5376C52.4857 59.0218 52.1428 59.4131 51.7184 59.4131H41.2816C40.8572 59.4131 40.5143 59.0218 40.5143 58.5376V37.4624C40.5143 36.9782 40.8572 36.5869 41.2816 36.5869H51.7184ZM51.7184 36H41.2816C40.5743 36 40 36.6554 40 37.4624V58.5376C40 59.3446 40.5743 60 41.2816 60H51.7184C52.4257 60 53 59.3446 53 58.5376V37.4624C53 36.6554 52.4257 36 51.7184 36Z" fill="#343434"/>
</g>
<g clip-path="url(#clip0_2_1616)">
<path d="M51.5057 51.1825L43.6317 54.4458C43.4683 54.5135 43.279 54.4344 43.2112 54.2699L41.1682 49.3414C41.1001 49.1773 41.1779 48.9877 41.341 48.9197L49.2151 45.6563C49.3785 45.5887 49.5678 45.6678 49.6355 45.8323L51.6781 50.761C51.7467 50.9249 51.6689 51.1145 51.5057 51.1825Z" fill="#FF4267"/>
<path d="M44.1751 51.2769L42.7491 51.8679C42.7341 51.8742 42.7163 51.8667 42.7099 51.8518L42.273 50.7977C42.2666 50.7827 42.2741 50.7649 42.2891 50.7585L43.7151 50.1676C43.7301 50.1612 43.7479 50.1687 43.7542 50.1837L44.1912 51.2378C44.1972 51.253 44.19 51.2705 44.1751 51.2769Z" fill="white"/>
<g opacity="0.2">
<path opacity="0.2" d="M44.1201 51.066L43.9322 50.6127C43.7148 51.1085 43.1242 51.5516 42.7502 51.7941C42.8021 51.8176 42.8628 51.8202 42.9191 51.7971L44.0046 51.347C44.1135 51.3019 44.1654 51.1753 44.1201 51.066Z" fill="#292949"/>
</g>
<path d="M44.5894 51.5445L42.877 52.2542L43.1038 52.8016L44.8163 52.0919L44.5894 51.5445Z" fill="white"/>
<path d="M46.4991 50.7535L44.7866 51.4631L45.0135 52.0106L46.726 51.3009L46.4991 50.7535Z" fill="white"/>
<path d="M48.4092 49.9615L46.6968 50.6711L46.9237 51.2186L48.6361 50.5089L48.4092 49.9615Z" fill="white"/>
<path d="M50.3189 49.1701L48.6064 49.8798L48.8333 50.4272L50.5458 49.7175L50.3189 49.1701Z" fill="white"/>
<path d="M50.708 50.1075L47.0859 51.6085L47.1547 51.7743L50.7767 50.2733L50.708 50.1075Z" fill="white"/>
</g>
<g clip-path="url(#clip1_2_1616)">
<path d="M51.0445 47.5709L42.521 47.5471C42.3442 47.5465 42.2 47.4005 42.2009 47.2227L42.2154 41.8876C42.2158 41.7098 42.3607 41.5649 42.5374 41.565L51.0609 41.5889C51.2377 41.5894 51.3819 41.7354 51.381 41.9132L51.366 47.2485C51.3661 47.4261 51.2212 47.5711 51.0445 47.5709Z" fill="#2B6F71"/>
<path d="M44.2444 44.832L42.7008 44.8276C42.6845 44.8277 42.671 44.8139 42.6709 44.7976L42.674 43.6566C42.6739 43.6404 42.6877 43.6268 42.7039 43.6267L44.2475 43.6311C44.2638 43.631 44.2773 43.6448 44.2774 43.661L44.2743 44.802C44.274 44.8184 44.2606 44.8318 44.2444 44.832Z" fill="white"/>
<g opacity="0.2">
<path opacity="0.2" d="M44.2749 44.6166L44.2763 44.1259C43.8846 44.4996 43.1688 44.6809 42.7303 44.7604C42.7691 44.8022 42.8241 44.828 42.885 44.8283L44.06 44.8314C44.1779 44.8318 44.2746 44.735 44.2749 44.6166Z" fill="#292949"/>
</g>
<path d="M44.5231 45.2397L42.6694 45.2345L42.6678 45.8271L44.5215 45.8323L44.5231 45.2397Z" fill="white"/>
<path d="M46.5905 45.2461L44.7368 45.2408L44.7351 45.8335L46.5888 45.8387L46.5905 45.2461Z" fill="white"/>
<path d="M48.6579 45.2513L46.8042 45.2461L46.8025 45.8387L48.6562 45.8439L48.6579 45.2513Z" fill="white"/>
<path d="M50.7253 45.2573L48.8716 45.2521L48.8699 45.8447L50.7236 45.8499L50.7253 45.2573Z" fill="white"/>
<path d="M50.7225 46.2709L46.8018 46.2599L46.8013 46.4394L50.722 46.4504L50.7225 46.2709Z" fill="white"/>
</g>
<g filter="url(#filter1_d_2_1616)">
<circle cx="49.8001" cy="56.8" r="1.2" fill="#FFAF2A"/>
</g>
<g clip-path="url(#clip2_2_1616)">
<path d="M50.28 56.7522H49.848V56.3202C49.848 56.2914 49.8288 56.2722 49.8 56.2722C49.7712 56.2722 49.752 56.2914 49.752 56.3202V56.7522H49.32C49.2912 56.7522 49.272 56.7714 49.272 56.8002C49.272 56.829 49.2912 56.8482 49.32 56.8482H49.752V57.2802C49.752 57.309 49.7712 57.3282 49.8 57.3282C49.8288 57.3282 49.848 57.309 49.848 57.2802V56.8482H50.28C50.3088 56.8482 50.328 56.829 50.328 56.8002C50.328 56.7714 50.3088 56.7522 50.28 56.7522Z" fill="white"/>
</g>
<path d="M42.6001 36.7717V36.4H50.2001V36.8413C50.0934 37.0829 49.689 37.1743 49.5001 37.1898C47.6223 37.1975 43.7468 37.2083 43.2668 37.1898C42.7868 37.1712 42.6223 36.9033 42.6001 36.7717Z" fill="#343434"/>
<path d="M171.8 146.305C157.779 149.452 150.604 142.93 149.636 141.967C149.636 141.967 149.616 141.87 149.579 141.909C149.541 141.87 149.522 141.967 149.522 141.967C148.568 142.943 141.486 149.554 127.422 146.583C127.422 146.583 125.446 172.026 133.706 182.349C142.527 193.375 149.93 196.679 149.967 196.65C150.004 196.678 157.424 193.345 166.024 182.147C174.071 171.67 171.8 146.305 171.8 146.305Z" fill="white"/>
<path d="M169.765 148.934C157.041 151.738 150.531 145.932 149.653 145.075C149.653 145.075 149.634 144.988 149.601 145.023C149.567 144.989 149.549 145.075 149.549 145.075C148.684 145.944 142.256 151.831 129.494 149.186C129.494 149.186 127.698 171.838 135.192 181.028C143.196 190.843 149.91 194.389 149.944 194.363C149.978 194.389 156.713 190.815 164.519 180.844C171.822 171.516 169.765 148.934 169.765 148.934Z" fill="#CFFCF9"/>
<g opacity="0.02">
<path opacity="0.02" d="M149.56 147.309C149.56 147.309 149.578 147.218 149.614 147.254C149.649 147.218 149.668 147.308 149.668 147.308C150.57 148.189 157.144 154.051 169.963 151.511C169.884 149.204 169.753 147.761 169.753 147.761C157.029 150.564 150.519 144.758 149.641 143.901C149.641 143.901 149.623 143.814 149.589 143.849C149.555 143.815 149.538 143.901 149.538 143.901C148.672 144.77 142.245 150.657 129.482 148.012C129.482 148.012 129.368 149.457 129.317 151.764C142.177 154.148 148.671 148.201 149.56 147.309Z" fill="black"/>
</g>
<path d="M166.031 155.249C156.418 157.407 150.351 152.71 149.687 152.05C149.687 152.05 149.673 151.983 149.648 152.01C149.622 151.984 149.609 152.05 149.609 152.05C148.955 152.719 143.016 157.478 133.374 155.441C133.374 155.441 133.103 172.658 138.765 179.735C144.813 187.294 149.889 189.56 149.914 189.54C149.94 189.559 155.026 187.274 160.923 179.597C166.439 172.414 166.031 155.249 166.031 155.249Z" fill="#2B6F71"/>
<path d="M142.557 170.694C142.702 170.925 143.582 171.879 144.73 173.204C146.102 174.788 147.648 176.572 147.829 176.774C148.162 177.146 148.407 176.89 148.904 175.918C149.593 174.572 151.012 171.622 153.007 168.93C155.003 166.238 157.995 163.268 158.708 162.711C159.42 162.154 159.753 161.783 159.278 161.597C158.803 161.411 155.093 163.975 152.929 166.266C150.604 168.726 148.086 172.743 147.462 172.837C146.962 172.913 144.543 171.14 143.857 170.724C143.061 170.24 142.179 170.093 142.557 170.694Z" fill="#CFFCF9"/>
<defs>
<filter id="filter0_d_2_1616" x="25" y="25" width="43" height="54" filterUnits="userSpaceOnUse" color-interpolation-filters="sRGB">
<feFlood flood-opacity="0" result="BackgroundImageFix"/>
<feColorMatrix in="SourceAlpha" type="matrix" values="0 0 0 0 0 0 0 0 0 0 0 0 0 0 0 0 0 0 127 0" result="hardAlpha"/>
<feOffset dy="4"/>
<feGaussianBlur stdDeviation="7.5"/>
<feColorMatrix type="matrix" values="0 0 0 0 0 0 0 0 0 0 0 0 0 0 0 0 0 0 0.1 0"/>
<feBlend mode="normal" in2="BackgroundImageFix" result="effect1_dropShadow_2_1616"/>
<feBlend mode="normal" in="SourceGraphic" in2="effect1_dropShadow_2_1616" result="shape"/>
</filter>
<filter id="filter1_d_2_1616" x="18.6001" y="29.6" width="62.3999" height="62.4" filterUnits="userSpaceOnUse" color-interpolation-filters="sRGB">
<feFlood flood-opacity="0" result="BackgroundImageFix"/>
<feColorMatrix in="SourceAlpha" type="matrix" values="0 0 0 0 0 0 0 0 0 0 0 0 0 0 0 0 0 0 127 0" result="hardAlpha"/>
<feOffset dy="4"/>
<feGaussianBlur stdDeviation="15"/>
<feColorMatrix type="matrix" values="0 0 0 0 0.211765 0 0 0 0 0.160784 0 0 0 0 0.717647 0 0 0 0.07 0"/>
<feBlend mode="normal" in2="BackgroundImageFix" result="effect1_dropShadow_2_1616"/>
<feBlend mode="normal" in="SourceGraphic" in2="effect1_dropShadow_2_1616" result="shape"/>
</filter>
<clipPath id="clip0_2_1616">
<rect width="10" height="7.45419" fill="white" transform="translate(40.2002 49.6578) rotate(-33.0783)"/>
</clipPath>
<clipPath id="clip1_2_1616">
<rect width="10" height="7.45419" fill="white" transform="translate(41.2002 41.8063) rotate(-10.4066)"/>
</clipPath>
<clipPath id="clip2_2_1616">
<rect width="1.152" height="1.152" fill="white" transform="translate(49.2241 56.2242)"/>
</clipPath>
</defs>
</svg>
