<svg width="15" height="19" viewBox="0 0 15 19" fill="none" xmlns="http://www.w3.org/2000/svg">
<path d="M7.5 0L0 3.33333V8.33333C0 12.9583 3.2 17.2833 7.5 18.3333C11.8 17.2833 15 12.9583 15 8.33333V3.33333L7.5 0ZM7.5 1.81667L13.3333 4.41667V8.51667C13.3333 9.93333 12.9167 11.375 12.2083 12.6417C10.8333 11.6167 8.55 11.25 7.5 11.25C6.45 11.25 4.16667 11.6167 2.79167 12.6417C2.08333 11.375 1.66667 9.93333 1.66667 8.51667V4.41667L7.5 1.81667ZM7.5 4.16667C6.72645 4.16667 5.98459 4.47396 5.43761 5.02094C4.89062 5.56792 4.58333 6.30979 4.58333 7.08333C4.58333 7.85688 4.89062 8.59875 5.43761 9.14573C5.98459 9.69271 6.72645 10 7.5 10C8.27355 10 9.01541 9.69271 9.56239 9.14573C10.1094 8.59875 10.4167 7.85688 10.4167 7.08333C10.4167 6.30979 10.1094 5.56792 9.56239 5.02094C9.01541 4.47396 8.27355 4.16667 7.5 4.16667ZM7.5 5.83333C7.83152 5.83333 8.14946 5.96503 8.38388 6.19945C8.6183 6.43387 8.75 6.75181 8.75 7.08333C8.75 7.41485 8.6183 7.7328 8.38388 7.96722C8.14946 8.20164 7.83152 8.33333 7.5 8.33333C7.16848 8.33333 6.85054 8.20164 6.61612 7.96722C6.3817 7.7328 6.25 7.41485 6.25 7.08333C6.25 6.75181 6.3817 6.43387 6.61612 6.19945C6.85054 5.96503 7.16848 5.83333 7.5 5.83333ZM7.5 12.9167C8.80833 12.9167 10.5333 13.425 11.275 14.0333C10.2417 15.3167 8.91667 16.2917 7.5 16.6667C6.08333 16.2917 4.75833 15.3167 3.725 14.0333C4.475 13.425 6.19167 12.9167 7.5 12.9167Z" fill="#156778"/>
</svg>
