<svg width="20" height="20" viewBox="0 0 20 20" fill="none" xmlns="http://www.w3.org/2000/svg">
<path d="M14.7083 5.29171C13.4999 4.08337 11.8416 3.33337 9.99992 3.33337C8.23181 3.33337 6.53612 4.03575 5.28587 5.286C4.03563 6.53624 3.33325 8.23193 3.33325 10C3.33325 11.7682 4.03563 13.4638 5.28587 14.7141C6.53612 15.9643 8.23181 16.6667 9.99992 16.6667C13.1083 16.6667 15.6999 14.5417 16.4416 11.6667H14.7083C14.0249 13.6084 12.1749 15 9.99992 15C8.67384 15 7.40207 14.4733 6.46438 13.5356C5.5267 12.5979 4.99992 11.3261 4.99992 10C4.99992 8.67396 5.5267 7.40219 6.46438 6.46451C7.40207 5.52682 8.67384 5.00004 9.99992 5.00004C11.3833 5.00004 12.6166 5.57504 13.5166 6.48337L10.8333 9.16671H16.6666V3.33337L14.7083 5.29171Z" fill="#156778"/>
</svg>
