<svg width="8" height="9" viewBox="0 0 8 9" fill="none" xmlns="http://www.w3.org/2000/svg">
<path d="M6.66667 6.36464C6.32889 6.36464 6.02667 6.50025 5.79556 6.71271L2.62667 4.83677C2.64889 4.7328 2.66667 4.62883 2.66667 4.52034C2.66667 4.41185 2.64889 4.30789 2.62667 4.20392L5.76 2.34606C6 2.57207 6.31556 2.7122 6.66667 2.7122C7.40444 2.7122 8 2.10648 8 1.3561C8 0.605726 7.40444 0 6.66667 0C5.92889 0 5.33333 0.605726 5.33333 1.3561C5.33333 1.46459 5.35111 1.56856 5.37333 1.67253L2.24 3.53039C2 3.30437 1.68444 3.16424 1.33333 3.16424C0.595556 3.16424 0 3.76996 0 4.52034C0 5.27072 0.595556 5.87644 1.33333 5.87644C1.68444 5.87644 2 5.73631 2.24 5.5103L5.40444 7.38624C5.38222 7.48117 5.36889 7.58061 5.36889 7.68458C5.36889 8.41236 5.95111 9 6.66667 9C7.38222 9 7.96444 8.41236 7.96444 7.68458C7.96444 6.95681 7.38222 6.36464 6.66667 6.36464ZM6.66667 0.904068C6.91111 0.904068 7.11111 1.10748 7.11111 1.3561C7.11111 1.60472 6.91111 1.80814 6.66667 1.80814C6.42222 1.80814 6.22222 1.60472 6.22222 1.3561C6.22222 1.10748 6.42222 0.904068 6.66667 0.904068ZM1.33333 4.97238C1.08889 4.97238 0.888889 4.76896 0.888889 4.52034C0.888889 4.27172 1.08889 4.06831 1.33333 4.06831C1.57778 4.06831 1.77778 4.27172 1.77778 4.52034C1.77778 4.76896 1.57778 4.97238 1.33333 4.97238ZM6.66667 8.13661C6.42222 8.13661 6.22222 7.9332 6.22222 7.68458C6.22222 7.43596 6.42222 7.23255 6.66667 7.23255C6.91111 7.23255 7.11111 7.43596 7.11111 7.68458C7.11111 7.9332 6.91111 8.13661 6.66667 8.13661Z" fill="#156778"/>
</svg>
